# xmcd CD database file
#
# Track frame offsets:
#	150
#	20295
#	35497
#	51937
#	69754
#	87720
#	106176
#	127704
#	146568
#	169299
#	188927
#	207650
#
# Disc length: 3001 seconds
#
# Revision: 1
# Processed by: cddbd v1.5.1PL0 Copyright (c) Steve Scherf et al.
# Submitted via: CDex 1.51
#
DISCID=a70bb70c
DTITLE=Mase - Welcome Back
DYEAR=2004
DGENRE=Hip-Hop
TTITLE0=Welcome Back
TTITLE1=Breathe, Stretch, Shake (f. P. Diddy)
TTITLE2=Keep It On
TTITLE3=I Wanna Go
TTITLE4=My Harlem Lullaby
TTITLE5=Wasting My Time
TTITLE6=Gotta Survive
TTITLE7=The Love U Need (f. Rashad)
TTITLE8=Do You Remember (f. Cardan)
TTITLE9=Money Comes and Goes (f. Nelly)
TTITLE10=Into What You Say
TTITLE11=I Owe
EXTD=YEAR: 2004
EXTT0=
EXTT1=
EXTT2=
EXTT3=
EXTT4=
EXTT5=
EXTT6=
EXTT7=
EXTT8=
EXTT9=
EXTT10=
EXTT11=
PLAYORDER=
